# xmcd
#
# Track frame offsets: 
#        150
#        12213
#        25043
#        38600
#        51890
#        64418
#        78225
#        91400
#        105128
#        118010
#        131205
#        144830
#        158090
#        169095
#        181475
#        193993
#        206858
#        219298
#        231830
#        244258
#        258305
#        271018
#        284060
#
# Disc length: 3961 seconds
#
# Revision: 3
# Processed by: cddbd v1.5.2PL0 Copyright (c) Steve Scherf et al.
# Submitted via: ExactAudioCopy v0.99pb4
#
DISCID=450f7717
DTITLE=Blind Lemon Jefferson - King of the Country Blues
DYEAR=1990
DGENRE=
TTITLE0=That Crawlin' Baby Blues
TTITLE1=Bad Luck Blues
TTITLE2=Matchbox Blues
TTITLE3=Hot Dogs
TTITLE4=One Dime Blues
TTITLE5=Shuckin' Sugar
TTITLE6=Rabbit Foot Blues
TTITLE7=Corrina Blues
TTITLE8=See That My Grave Is Kept Clean
TTITLE9=Easy Rider Blues
TTITLE10=Broke and Hungry
TTITLE11=Black Horse Blues
TTITLE12=Lonesome House Blues
TTITLE13=Oil Well Blues
TTITLE14=He Arose from the Dead
TTITLE15=Beggin' Back
TTITLE16=Prison Cell Blues
TTITLE17=Rambler Blues
TTITLE18=Gone Dead On You Blues
TTITLE19=Wartime Blues
TTITLE20=Booger Rooger Blues
TTITLE21=Right of Way Blues
TTITLE22=Big Night Blues
EXTD=
EXTT0=
EXTT1=
EXTT2=
EXTT3=
EXTT4=
EXTT5=
EXTT6=
EXTT7=
EXTT8=
EXTT9=
EXTT10=
EXTT11=
EXTT12=
EXTT13=
EXTT14=
EXTT15=
EXTT16=
EXTT17=
EXTT18=
EXTT19=
EXTT20=
EXTT21=
EXTT22=
PLAYORDER=
